REM DIRINDEX 1\2,1\3
REM DIRNAME cjc102,folder01,folder02
TITLE ""
FILE "CD2Track30.mp3" MP3
  TRACK 01 AUDIO
    TITLE "0:"
    INDEX 01 00:00:00
  TRACK 02 AUDIO
    TITLE "3:cjc102_3755"
    INDEX 01 00:00:25
  TRACK 03 AUDIO
    TITLE "0:"
    INDEX 01 00:01:22
  TRACK 04 AUDIO
    TITLE "2:cjc102_3756"
    INDEX 01 00:01:40
  TRACK 05 AUDIO
    TITLE "0:"
    INDEX 01 00:02:49
  TRACK 06 AUDIO
    TITLE "3:cjc102_3757"
    INDEX 01 00:03:29
  TRACK 07 AUDIO
    TITLE "0:"
    INDEX 01 00:04:15
  TRACK 08 AUDIO
    TITLE "2:cjc102_3758"
    INDEX 01 00:04:50
  TRACK 09 AUDIO
    TITLE "0:"
    INDEX 01 00:05:59
  TRACK 10 AUDIO
    TITLE "3:cjc102_3759"
    INDEX 01 00:06:24
  TRACK 11 AUDIO
    TITLE "0:"
    INDEX 01 00:07:21
  TRACK 12 AUDIO
    TITLE "2:cjc102_3760"
    INDEX 01 00:07:41
  TRACK 13 AUDIO
    TITLE "0:"
    INDEX 01 00:08:40
  TRACK 14 AUDIO
    TITLE "3:cjc102_3761"
    INDEX 01 00:09:12
  TRACK 15 AUDIO
    TITLE "0:"
    INDEX 01 00:09:71
  TRACK 16 AUDIO
    TITLE "2:cjc102_3762"
    INDEX 01 00:10:06
  TRACK 17 AUDIO
    TITLE "0:"
    INDEX 01 00:11:03
  TRACK 18 AUDIO
    TITLE "3:cjc102_3763"
    INDEX 01 00:11:52
  TRACK 19 AUDIO
    TITLE "0:"
    INDEX 01 00:12:32
  TRACK 20 AUDIO
    TITLE "2:cjc102_3764"
    INDEX 01 00:12:34
  TRACK 21 AUDIO
    TITLE "0:"
    INDEX 01 00:13:35
  TRACK 22 AUDIO
    TITLE "2:cjc102_3765"
    INDEX 01 00:14:00
  TRACK 23 AUDIO
    TITLE "0:"
    INDEX 01 00:15:21
  TRACK 24 AUDIO
    TITLE "3:cjc102_3766"
    INDEX 01 00:15:58
  TRACK 25 AUDIO
    TITLE "0:"
    INDEX 01 00:16:44
  TRACK 26 AUDIO
    TITLE "2:cjc102_3767"
    INDEX 01 00:16:57
  TRACK 27 AUDIO
    TITLE "0:"
    INDEX 01 00:17:57
  TRACK 28 AUDIO
    TITLE "2:cjc102_3768"
    INDEX 01 00:18:25
  TRACK 29 AUDIO
    TITLE "0:"
    INDEX 01 00:19:54
  TRACK 30 AUDIO
    TITLE "3:cjc102_3769"
    INDEX 01 00:20:08
  TRACK 31 AUDIO
    TITLE "0:"
    INDEX 01 00:21:04
  TRACK 32 AUDIO
    TITLE "2:cjc102_3770"
    INDEX 01 00:21:49
  TRACK 33 AUDIO
    TITLE "0:"
    INDEX 01 00:22:60
  TRACK 34 AUDIO
    TITLE "2:cjc102_3771"
    INDEX 01 00:23:34
  TRACK 35 AUDIO
    TITLE "0:"
    INDEX 01 00:24:37
  TRACK 36 AUDIO
    TITLE "3:cjc102_3772"
    INDEX 01 00:24:59
  TRACK 37 AUDIO
    TITLE "0:"
    INDEX 01 00:25:54
  TRACK 38 AUDIO
    TITLE "2:cjc102_3773"
    INDEX 01 00:25:58
  TRACK 39 AUDIO
    TITLE "0:"
    INDEX 01 00:26:64
  TRACK 40 AUDIO
    TITLE "2:cjc102_3774"
    INDEX 01 00:27:47
  TRACK 41 AUDIO
    TITLE "0:"
    INDEX 01 00:28:60
  TRACK 42 AUDIO
    TITLE "3:cjc102_3775"
    INDEX 01 00:29:21
  TRACK 43 AUDIO
    TITLE "0:"
    INDEX 01 00:30:12
  TRACK 44 AUDIO
    TITLE "2:cjc102_3776"
    INDEX 01 00:30:34
  TRACK 45 AUDIO
    TITLE "0:"
    INDEX 01 00:31:45
  TRACK 46 AUDIO
    TITLE "2:cjc102_3777"
    INDEX 01 00:32:33
  TRACK 47 AUDIO
    TITLE "0:"
    INDEX 01 00:33:24
  TRACK 48 AUDIO
    TITLE "3:cjc102_3778"
    INDEX 01 00:34:00
  TRACK 49 AUDIO
    TITLE "0:"
    INDEX 01 00:34:69
  TRACK 50 AUDIO
    TITLE "2:cjc102_3779"
    INDEX 01 00:35:45
  TRACK 51 AUDIO
    TITLE "0:"
    INDEX 01 00:36:54
  TRACK 52 AUDIO
    TITLE "2:cjc102_3780"
    INDEX 01 00:37:38
  TRACK 53 AUDIO
    TITLE "0:"
    INDEX 01 00:38:49
  TRACK 54 AUDIO
    TITLE "3:cjc102_3781"
    INDEX 01 00:38:71
  TRACK 55 AUDIO
    TITLE "0:"
    INDEX 01 00:40:13
  TRACK 56 AUDIO
    TITLE "2:cjc102_3782"
    INDEX 01 00:40:24
  TRACK 57 AUDIO
    TITLE "0:"
    INDEX 01 00:41:36
  TRACK 58 AUDIO
    TITLE "2:cjc102_3783"
    INDEX 01 00:42:10
  TRACK 59 AUDIO
    TITLE "0:"
    INDEX 01 00:43:29
  TRACK 60 AUDIO
    TITLE "3:cjc102_3784"
    INDEX 01 00:43:31
  TRACK 61 AUDIO
    TITLE "0:"
    INDEX 01 00:44:42
  TRACK 62 AUDIO
    TITLE "2:cjc102_3785"
    INDEX 01 00:45:22
  TRACK 63 AUDIO
    TITLE "0:"
    INDEX 01 00:46:21
  TRACK 64 AUDIO
    TITLE "2:cjc102_3786"
    INDEX 01 00:47:11
  TRACK 65 AUDIO
    TITLE "0:"
    INDEX 01 00:48:34
  TRACK 66 AUDIO
    TITLE "3:cjc102_3787"
    INDEX 01 00:48:44
  TRACK 67 AUDIO
    TITLE "0:"
    INDEX 01 00:49:47
  TRACK 68 AUDIO
    TITLE "2:cjc102_3788"
    INDEX 01 00:49:49
  TRACK 69 AUDIO
    TITLE "0:"
    INDEX 01 00:50:48
  TRACK 70 AUDIO
    TITLE "2:cjc102_3789"
    INDEX 01 00:51:32
  TRACK 71 AUDIO
    TITLE "0:"
    INDEX 01 00:52:39
